STARTFONT 2.1
FONT --MS Sans Serif-Regular-R-Normal--24-240-96-72-P-163-WINDOWS-ANSI~2.0
SIZE 24 96 72
FONTBOUNDINGBOX 31 28 0 -6
METRICSSET 2
STARTPROPERTIES 20
FONT_ASCENT 18
PIXEL_SIZE 24
RESOLUTION_X 96
RESOLUTION_Y 72
POINT_SIZE 240
FACE_NAME "MS Sans Serif 24"
COPYRIGHT "(c) Copyright Microsoft Corp. 1987. All rights reserved."
FOUNDRY ""
FAMILY_NAME "MS Sans Serif"
WEIGHT_NAME "Regular"
RELATIVE_WEIGHT 50
SLANT "R"
SPACING "P"
SETWIDTH_NAME "Normal"
RELATIVE_SETWIDTH 50
ADD_STYLE_NAME ""
AVERAGE_WIDTH 163
DEFAULT_CHAR 128
CHARSET_REGISTRY "WINDOWS"
CHARSET_ENCODING "ANSI-2.0"
ENDPROPERTIES
CHARS 224
STARTCHAR space
ENCODING 32
SWIDTH 281 0
DWIDTH 9 0
BBX 0 0 9 22
VVECTOR 14 22
SWIDTH1 0 -1167
DWIDTH1 0 -28
BITMAP 
ENDCHAR
STARTCHAR exclam
ENCODING 33
SWIDTH 281 0
DWIDTH 9 0
BBX 3 18 3 0
VVECTOR 5 22
SWIDTH1 0 -1167
DWIDTH1 0 -28
BITMAP 
E0
E0
E0
E0
E0
E0
E0
E0
E0
E0
E0
40
40
00
00
E0
E0
E0
ENDCHAR
STARTCHAR quotedbl
ENCODING 34
SWIDTH 344 0
DWIDTH 11 0
BBX 9 7 1 11
VVECTOR 6 22
SWIDTH1 0 -1167
DWIDTH1 0 -28
BITMAP 
E380
E380
E380
E380
E380
4100
4100
ENDCHAR
STARTCHAR numbersign
ENCODING 35
SWIDTH 562 0
DWIDTH 18 0
BBX 18 18 0 0
VVECTOR 9 22
SWIDTH1 0 -1167
DWIDTH1 0 -28
BITMAP 
018300
018300
038700
030600
030600
3FFFC0
3FFFC0
060C00
0E1C00
0C1800
0C1800
FFFF00
FFFF00
183000
387000
306000
306000
306000
ENDCHAR
STARTCHAR dollar
ENCODING 36
SWIDTH 562 0
DWIDTH 18 0
BBX 16 21 1 -2
VVECTOR 9 22
SWIDTH1 0 -1167
DWIDTH1 0 -28
BITMAP 
0180
0180
1FF0
7FFC
719C
E18E
E18E
E180
7980
3F80
0FF8
01FE
018E
C187
E187
E187
799E
3FFC
0FF0
0180
0180
ENDCHAR
STARTCHAR percent
ENCODING 37
SWIDTH 906 0
DWIDTH 29 0
BBX 25 18 2 0
VVECTOR 15 22
SWIDTH1 0 -1167
DWIDTH1 0 -28
BITMAP 
1E000C00
7F801800
61803000
C0C06000
C0C0C000
C0C18000
61830000
7F860000
1E0C0000
00183C00
0030FF00
0060C300
00C18180
01818180
03018180
0600C300
0C00FF00
18003C00
ENDCHAR
STARTCHAR ampersand
ENCODING 38
SWIDTH 688 0
DWIDTH 22 0
BBX 20 18 2 0
VVECTOR 13 22
SWIDTH1 0 -1167
DWIDTH1 0 -28
BITMAP 
03E000
0FF800
1E3C00
1C1C00
1C1C00
1E3C00
0F7800
07E000
0FC000
3FE180
78F380
F07B80
E03F00
E01F00
F00F80
783FC0
3FF9E0
0FE0F0
ENDCHAR
STARTCHAR quotesingle
ENCODING 39
SWIDTH 219 0
DWIDTH 7 0
BBX 3 7 2 11
VVECTOR 4 22
SWIDTH1 0 -1167
DWIDTH1 0 -28
BITMAP 
E0
E0
E0
E0
E0
40
40
ENDCHAR
STARTCHAR parenleft
ENCODING 40
SWIDTH 344 0
DWIDTH 11 0
BBX 7 23 3 -5
VVECTOR 8 22
SWIDTH1 0 -1167
DWIDTH1 0 -28
BITMAP 
06
0C
18
38
30
70
70
E0
E0
E0
E0
E0
E0
E0
E0
E0
70
70
30
38
18
0C
06
ENDCHAR
STARTCHAR parenright
ENCODING 41
SWIDTH 344 0
DWIDTH 11 0
BBX 7 23 1 -5
VVECTOR 4 22
SWIDTH1 0 -1167
DWIDTH1 0 -28
BITMAP 
C0
60
30
38
18
1C
1C
0E
0E
0E
0E
0E
0E
0E
0E
0E
1C
1C
18
38
30
60
C0
ENDCHAR
STARTCHAR asterisk
ENCODING 42
SWIDTH 375 0
DWIDTH 12 0
BBX 12 9 0 9
VVECTOR 6 22
SWIDTH1 0 -1167
DWIDTH1 0 -28
BITMAP 
0600
0600
E670
7FE0
3FC0
1F80
1F80
39C0
70E0
ENDCHAR
STARTCHAR plus
ENCODING 43
SWIDTH 594 0
DWIDTH 19 0
BBX 17 12 1 1
VVECTOR 10 22
SWIDTH1 0 -1167
DWIDTH1 0 -28
BITMAP 
01C000
01C000
01C000
01C000
01C000
FFFF80
FFFF80
01C000
01C000
01C000
01C000
01C000
ENDCHAR
STARTCHAR comma
ENCODING 44
SWIDTH 281 0
DWIDTH 9 0
BBX 3 6 3 -3
VVECTOR 5 22
SWIDTH1 0 -1167
DWIDTH1 0 -28
BITMAP 
E0
E0
E0
20
60
C0
ENDCHAR
STARTCHAR hyphen
ENCODING 45
SWIDTH 313 0
DWIDTH 10 0
BBX 8 2 1 6
VVECTOR 5 22
SWIDTH1 0 -1167
DWIDTH1 0 -28
BITMAP 
FF
FF
ENDCHAR
STARTCHAR period
ENCODING 46
SWIDTH 281 0
DWIDTH 9 0
BBX 3 3 3 0
VVECTOR 5 22
SWIDTH1 0 -1167
DWIDTH1 0 -28
BITMAP 
E0
E0
E0
ENDCHAR
STARTCHAR slash
ENCODING 47
SWIDTH 281 0
DWIDTH 9 0
BBX 9 20 0 -2
VVECTOR 5 22
SWIDTH1 0 -1167
DWIDTH1 0 -28
BITMAP 
0180
0180
0180
0300
0300
0600
0600
0600
0C00
0C00
1800
1800
1800
3000
3000
6000
6000
6000
C000
C000
ENDCHAR
STARTCHAR zero
ENCODING 48
SWIDTH 562 0
DWIDTH 18 0
BBX 16 18 1 0
VVECTOR 9 22
SWIDTH1 0 -1167
DWIDTH1 0 -28
BITMAP 
07E0
1FF8
3C3C
700E
700E
E007
E007
E007
E007
E007
E007
E007
E007
700E
700E
3C3C
1FF8
07E0
ENDCHAR
STARTCHAR one
ENCODING 49
SWIDTH 562 0
DWIDTH 18 0
BBX 8 18 4 0
VVECTOR 7 22
SWIDTH1 0 -1167
DWIDTH1 0 -28
BITMAP 
03
07
0F
FF
FF
07
07
07
07
07
07
07
07
07
07
07
07
07
ENDCHAR
STARTCHAR two
ENCODING 50
SWIDTH 562 0
DWIDTH 18 0
BBX 16 18 1 0
VVECTOR 9 22
SWIDTH1 0 -1167
DWIDTH1 0 -28
BITMAP 
0FF0
3FFC
781E
700F
E007
E007
0007
000F
001E
007C
01F0
07C0
1F00
7C00
7000
E000
FFFF
FFFF
ENDCHAR
STARTCHAR three
ENCODING 51
SWIDTH 562 0
DWIDTH 18 0
BBX 16 18 1 0
VVECTOR 9 22
SWIDTH1 0 -1167
DWIDTH1 0 -28
BITMAP 
0FF0
3FFC
381E
700E
700E
000E
000E
001C
03F8
03FE
001E
0007
C007
E007
E00F
783E
3FFC
0FF0
ENDCHAR
STARTCHAR four
ENCODING 52
SWIDTH 562 0
DWIDTH 18 0
BBX 16 18 1 0
VVECTOR 9 22
SWIDTH1 0 -1167
DWIDTH1 0 -28
BITMAP 
0038
0078
00F8
01F8
03B8
0738
0E38
1C38
3838
7038
E038
FFFF
FFFF
0038
0038
0038
0038
0038
ENDCHAR
STARTCHAR five
ENCODING 53
SWIDTH 562 0
DWIDTH 18 0
BBX 16 18 1 0
VVECTOR 9 22
SWIDTH1 0 -1167
DWIDTH1 0 -28
BITMAP 
1FFE
1FFE
3800
3800
3000
7000
77F0
7FFC
7C3E
700E
0007
0007
C007
E007
E00E
783E
3FFC
0FF0
ENDCHAR
STARTCHAR six
ENCODING 54
SWIDTH 562 0
DWIDTH 18 0
BBX 16 18 1 0
VVECTOR 9 22
SWIDTH1 0 -1167
DWIDTH1 0 -28
BITMAP 
07F0
1FFC
3C1E
7007
7007
E000
E3F0
EFFC
FC1E
F00E
E007
E007
E007
E007
700E
781E
3FFC
0FF0
ENDCHAR
STARTCHAR seven
ENCODING 55
SWIDTH 562 0
DWIDTH 18 0
BBX 16 18 1 0
VVECTOR 9 22
SWIDTH1 0 -1167
DWIDTH1 0 -28
BITMAP 
FFFF
FFFF
000E
001C
0038
0070
00E0
01C0
01C0
0380
0380
0700
0700
0700
0E00
0E00
0E00
0E00
ENDCHAR
STARTCHAR eight
ENCODING 56
SWIDTH 562 0
DWIDTH 18 0
BBX 16 18 1 0
VVECTOR 9 22
SWIDTH1 0 -1167
DWIDTH1 0 -28
BITMAP 
0FF0
3FFC
381C
700E
700E
700E
300C
381C
1FF8
3FFC
700E
E007
E007
E007
E007
700E
3FFC
0FF0
ENDCHAR
STARTCHAR nine
ENCODING 57
SWIDTH 562 0
DWIDTH 18 0
BBX 16 18 1 0
VVECTOR 9 22
SWIDTH1 0 -1167
DWIDTH1 0 -28
BITMAP 
0FF0
3FFC
781E
700E
E007
E007
E007
E007
700F
783F
3FF7
0FC7
0007
E00E
E00E
783C
3FF8
0FE0
ENDCHAR
STARTCHAR colon
ENCODING 58
SWIDTH 281 0
DWIDTH 9 0
BBX 3 13 3 0
VVECTOR 5 22
SWIDTH1 0 -1167
DWIDTH1 0 -28
BITMAP 
E0
E0
E0
00
00
00
00
00
00
00
E0
E0
E0
ENDCHAR
STARTCHAR semicolon
ENCODING 59
SWIDTH 281 0
DWIDTH 9 0
BBX 3 16 3 -3
VVECTOR 5 22
SWIDTH1 0 -1167
DWIDTH1 0 -28
BITMAP 
E0
E0
E0
00
00
00
00
00
00
00
E0
E0
E0
20
60
C0
ENDCHAR
STARTCHAR less
ENCODING 60
SWIDTH 594 0
DWIDTH 19 0
BBX 16 13 1 0
VVECTOR 9 22
SWIDTH1 0 -1167
DWIDTH1 0 -28
BITMAP 
0003
001F
00FC
07E0
3F00
F800
E000
F800
3F00
07E0
00FC
001F
0003
ENDCHAR
STARTCHAR equal
ENCODING 61
SWIDTH 594 0
DWIDTH 19 0
BBX 17 6 1 3
VVECTOR 10 22
SWIDTH1 0 -1167
DWIDTH1 0 -28
BITMAP 
FFFF80
FFFF80
000000
000000
FFFF80
FFFF80
ENDCHAR
STARTCHAR greater
ENCODING 62
SWIDTH 594 0
DWIDTH 19 0
BBX 16 13 2 0
VVECTOR 11 22
SWIDTH1 0 -1167
DWIDTH1 0 -28
BITMAP 
C000
F800
3F00
07E0
00FC
001F
0007
001F
00FC
07E0
3F00
F800
C000
ENDCHAR
STARTCHAR question
ENCODING 63
SWIDTH 531 0
DWIDTH 17 0
BBX 14 18 1 0
VVECTOR 8 22
SWIDTH1 0 -1167
DWIDTH1 0 -28
BITMAP 
1FE0
7FF8
7038
E01C
E01C
001C
0038
0078
00F0
01E0
03C0
0380
0380
0000
0000
0380
0380
0380
ENDCHAR
STARTCHAR at
ENCODING 64
SWIDTH 969 0
DWIDTH 31 0
BBX 27 21 2 -4
VVECTOR 16 22
SWIDTH1 0 -1167
DWIDTH1 0 -28
BITMAP 
003FE000
01E03C00
07000700
0C000180
180000C0
3007DCC0
601EF860
60783860
C0E07060
C0E07060
C1C07060
C1C0E060
C1C0E0C0
E1C1E0C0
60E77380
607E3E00
30000000
18000000
0E000E00
03C0F800
00FFC000
ENDCHAR
STARTCHAR A
ENCODING 65
SWIDTH 688 0
DWIDTH 22 0
BBX 21 18 1 0
VVECTOR 12 22
SWIDTH1 0 -1167
DWIDTH1 0 -28
BITMAP 
00F800
00F800
01FC00
01DC00
03DE00
038E00
078F00
070700
0F0780
0E0380
1FFFC0
1FFFC0
3C01E0
3800E0
7800F0
700070
F00078
E00038
ENDCHAR
STARTCHAR B
ENCODING 66
SWIDTH 656 0
DWIDTH 21 0
BBX 17 18 3 0
VVECTOR 13 22
SWIDTH1 0 -1167
DWIDTH1 0 -28
BITMAP 
FFF800
FFFE00
E00F00
E00700
E00700
E00700
E00700
E01E00
FFF800
FFFE00
E00F00
E00380
E00380
E00380
E00380
E00F00
FFFE00
FFF800
ENDCHAR
STARTCHAR C
ENCODING 67
SWIDTH 719 0
DWIDTH 23 0
BBX 21 18 2 0
VVECTOR 14 22
SWIDTH1 0 -1167
DWIDTH1 0 -28
BITMAP 
03FF00
0FFFC0
3E01F0
780078
700038
F00000
E00000
E00000
E00000
E00000
E00000
E00000
F00000
700038
780078
3E01F0
0FFFC0
03FF00
ENDCHAR
STARTCHAR D
ENCODING 68
SWIDTH 719 0
DWIDTH 23 0
BBX 19 18 3 0
VVECTOR 14 22
SWIDTH1 0 -1167
DWIDTH1 0 -28
BITMAP 
FFF800
FFFE00
E00F80
E003C0
E001C0
E001E0
E000E0
E000E0
E000E0
E000E0
E000E0
E000E0
E001E0
E001C0
E003C0
E00F80
FFFE00
FFF800
ENDCHAR
STARTCHAR E
ENCODING 69
SWIDTH 656 0
DWIDTH 21 0
BBX 17 18 3 0
VVECTOR 13 22
SWIDTH1 0 -1167
DWIDTH1 0 -28
BITMAP 
FFFF80
FFFF80
E00000
E00000
E00000
E00000
E00000
E00000
FFFE00
FFFE00
E00000
E00000
E00000
E00000
E00000
E00000
FFFF80
FFFF80
ENDCHAR
STARTCHAR F
ENCODING 70
SWIDTH 625 0
DWIDTH 20 0
BBX 17 18 3 0
VVECTOR 13 22
SWIDTH1 0 -1167
DWIDTH1 0 -28
BITMAP 
FFFF80
FFFF80
E00000
E00000
E00000
E00000
E00000
E00000
FFFE00
FFFE00
E00000
E00000
E00000
E00000
E00000
E00000
E00000
E00000
ENDCHAR
STARTCHAR G
ENCODING 71
SWIDTH 781 0
DWIDTH 25 0
BBX 21 18 2 0
VVECTOR 13 22
SWIDTH1 0 -1167
DWIDTH1 0 -28
BITMAP 
03FF00
0FFFC0
3E01F0
780078
700038
F00000
E00000
E00000
E00000
E01FF8
E01FF8
E00038
F00038
700038
780078
3E01F8
0FFFB8
03FF38
ENDCHAR
STARTCHAR H
ENCODING 72
SWIDTH 719 0
DWIDTH 23 0
BBX 18 18 3 0
VVECTOR 13 22
SWIDTH1 0 -1167
DWIDTH1 0 -28
BITMAP 
E001C0
E001C0
E001C0
E001C0
E001C0
E001C0
E001C0
E001C0
FFFFC0
FFFFC0
E001C0
E001C0
E001C0
E001C0
E001C0
E001C0
E001C0
E001C0
ENDCHAR
STARTCHAR I
ENCODING 73
SWIDTH 250 0
DWIDTH 8 0
BBX 3 18 3 0
VVECTOR 5 22
SWIDTH1 0 -1167
DWIDTH1 0 -28
BITMAP 
E0
E0
E0
E0
E0
E0
E0
E0
E0
E0
E0
E0
E0
E0
E0
E0
E0
E0
ENDCHAR
STARTCHAR J
ENCODING 74
SWIDTH 500 0
DWIDTH 16 0
BBX 13 18 1 0
VVECTOR 7 22
SWIDTH1 0 -1167
DWIDTH1 0 -28
BITMAP 
0038
0038
0038
0038
0038
0038
0038
0038
0038
0038
0038
0038
E038
E038
E038
7078
7FF0
1FC0
ENDCHAR
STARTCHAR K
ENCODING 75
SWIDTH 656 0
DWIDTH 21 0
BBX 18 18 3 0
VVECTOR 14 22
SWIDTH1 0 -1167
DWIDTH1 0 -28
BITMAP 
E00F00
E01E00
E03C00
E07800
E0F000
E1E000
E3C000
E78000
EF8000
FFC000
FDE000
F8F000
F07800
E03C00
E01E00
E00F00
E00780
E003C0
ENDCHAR
STARTCHAR L
ENCODING 76
SWIDTH 562 0
DWIDTH 18 0
BBX 15 18 3 0
VVECTOR 12 22
SWIDTH1 0 -1167
DWIDTH1 0 -28
BITMAP 
E000
E000
E000
E000
E000
E000
E000
E000
E000
E000
E000
E000
E000
E000
E000
E000
FFFE
FFFE
ENDCHAR
STARTCHAR M
ENCODING 77
SWIDTH 812 0
DWIDTH 26 0
BBX 21 18 3 0
VVECTOR 14 22
SWIDTH1 0 -1167
DWIDTH1 0 -28
BITMAP 
F00078
F800F8
F800F8
FC01F8
FC01F8
FE03F8
EE03B8
EF07B8
E70738
E78F38
E38E38
E3DE38
E1DC38
E1FC38
E0F838
E0F838
E07038
E07038
ENDCHAR
STARTCHAR N
ENCODING 78
SWIDTH 750 0
DWIDTH 24 0
BBX 19 18 3 0
VVECTOR 13 22
SWIDTH1 0 -1167
DWIDTH1 0 -28
BITMAP 
E000E0
F000E0
F800E0
FC00E0
FE00E0
EF00E0
E780E0
E3C0E0
E1E0E0
E0F0E0
E078E0
E03CE0
E01EE0
E00FE0
E007E0
E003E0
E001E0
E000E0
ENDCHAR
STARTCHAR O
ENCODING 79
SWIDTH 781 0
DWIDTH 25 0
BBX 22 18 2 0
VVECTOR 14 22
SWIDTH1 0 -1167
DWIDTH1 0 -28
BITMAP 
03FF00
0FFFC0
3E01F0
780078
700038
F0003C
E0001C
E0001C
E0001C
E0001C
E0001C
E0001C
F0003C
700038
780078
3E01F0
0FFFC0
03FF00
ENDCHAR
STARTCHAR P
ENCODING 80
SWIDTH 656 0
DWIDTH 21 0
BBX 17 18 3 0
VVECTOR 13 22
SWIDTH1 0 -1167
DWIDTH1 0 -28
BITMAP 
FFFC00
FFFF00
E00700
E00380
E00380
E00380
E00380
E00700
FFFF00
FFFC00
E00000
E00000
E00000
E00000
E00000
E00000
E00000
E00000
ENDCHAR
STARTCHAR Q
ENCODING 81
SWIDTH 781 0
DWIDTH 25 0
BBX 22 19 2 -1
VVECTOR 14 22
SWIDTH1 0 -1167
DWIDTH1 0 -28
BITMAP 
03FF00
0FFFC0
3E01F0
780078
700038
F0003C
E0001C
E0001C
E0001C
E0001C
E0001C
E0001C
F0003C
7001B8
7803F8
3E01F0
0FFFF8
03FF3C
000018
ENDCHAR
STARTCHAR R
ENCODING 82
SWIDTH 688 0
DWIDTH 22 0
BBX 18 18 3 0
VVECTOR 13 22
SWIDTH1 0 -1167
DWIDTH1 0 -28
BITMAP 
FFFC00
FFFF00
E00700
E00380
E00380
E00380
E00380
E00700
FFFE00
FFFF00
E00700
E00380
E00380
E00380
E00380
E00380
E003C0
E001C0
ENDCHAR
STARTCHAR S
ENCODING 83
SWIDTH 656 0
DWIDTH 21 0
BBX 19 18 1 0
VVECTOR 11 22
SWIDTH1 0 -1167
DWIDTH1 0 -28
BITMAP 
07FC00
1FFF00
3C0780
7001C0
7001C0
700000
3E0000
1FE000
03FC00
003F80
0007C0
0001E0
E000E0
E000E0
F001E0
7C07C0
3FFF80
0FFE00
ENDCHAR
STARTCHAR T
ENCODING 84
SWIDTH 625 0
DWIDTH 20 0
BBX 19 18 1 0
VVECTOR 11 22
SWIDTH1 0 -1167
DWIDTH1 0 -28
BITMAP 
FFFFE0
FFFFE0
00E000
00E000
00E000
00E000
00E000
00E000
00E000
00E000
00E000
00E000
00E000
00E000
00E000
00E000
00E000
00E000
ENDCHAR
STARTCHAR U
ENCODING 85
SWIDTH 719 0
DWIDTH 23 0
BBX 18 18 3 0
VVECTOR 13 22
SWIDTH1 0 -1167
DWIDTH1 0 -28
BITMAP 
E001C0
E001C0
E001C0
E001C0
E001C0
E001C0
E001C0
E001C0
E001C0
E001C0
E001C0
E001C0
E001C0
E001C0
700380
780780
3FFF00
0FFC00
ENDCHAR
STARTCHAR V
ENCODING 86
SWIDTH 688 0
DWIDTH 22 0
BBX 21 18 1 0
VVECTOR 12 22
SWIDTH1 0 -1167
DWIDTH1 0 -28
BITMAP 
E00038
F00078
700070
7800F0
3800E0
3C01E0
1C01C0
1E03C0
0E0380
0F0780
070700
078F00
038E00
03DE00
01DC00
01FC00
00F800
00F800
ENDCHAR
STARTCHAR W
ENCODING 87
SWIDTH 938 0
DWIDTH 30 0
BBX 29 18 1 0
VVECTOR 16 22
SWIDTH1 0 -1167
DWIDTH1 0 -28
BITMAP 
E0070038
E0070038
E0070038
700F8070
700F8070
381FC0E0
381DC0E0
381DC0E0
1C38E1C0
1C38E1C0
0E707380
0E707380
0E707380
07E03F00
07E03F00
03C01E00
03C01E00
03C01E00
ENDCHAR
STARTCHAR X
ENCODING 88
SWIDTH 656 0
DWIDTH 21 0
BBX 20 18 1 0
VVECTOR 12 22
SWIDTH1 0 -1167
DWIDTH1 0 -28
BITMAP 
F000F0
7801E0
3C03C0
1E0780
0F0F00
079E00
03FC00
01F800
00F000
00F000
01F800
03FC00
079E00
0F0F00
1E0780
3C03C0
7801E0
F000F0
ENDCHAR
STARTCHAR Y
ENCODING 89
SWIDTH 688 0
DWIDTH 22 0
BBX 21 18 1 0
VVECTOR 12 22
SWIDTH1 0 -1167
DWIDTH1 0 -28
BITMAP 
F00078
7800F0
3C01E0
1E03C0
0F0780
078F00
03DE00
01FC00
00F800
007000
007000
007000
007000
007000
007000
007000
007000
007000
ENDCHAR
STARTCHAR Z
ENCODING 90
SWIDTH 625 0
DWIDTH 20 0
BBX 19 18 1 0
VVECTOR 11 22
SWIDTH1 0 -1167
DWIDTH1 0 -28
BITMAP 
7FFFE0
7FFFE0
0003C0
000780
000F00
001E00
003C00
007800
00F000
01E000
03C000
078000
0F0000
1E0000
3C0000
780000
FFFFE0
FFFFE0
ENDCHAR
STARTCHAR bracketleft
ENCODING 91
SWIDTH 281 0
DWIDTH 9 0
BBX 6 23 3 -5
VVECTOR 8 22
SWIDTH1 0 -1167
DWIDTH1 0 -28
BITMAP 
FC
FC
E0
E0
E0
E0
E0
E0
E0
E0
E0
E0
E0
E0
E0
E0
E0
E0
E0
E0
E0
FC
FC
ENDCHAR
STARTCHAR backslash
ENCODING 92
SWIDTH 281 0
DWIDTH 9 0
BBX 9 20 0 -2
VVECTOR 5 22
SWIDTH1 0 -1167
DWIDTH1 0 -28
BITMAP 
C000
C000
C000
6000
6000
3000
3000
3000
1800
1800
0C00
0C00
0C00
0600
0600
0300
0300
0300
0180
0180
ENDCHAR
STARTCHAR bracketright
ENCODING 93
SWIDTH 281 0
DWIDTH 9 0
BBX 6 23 0 -5
VVECTOR 2 22
SWIDTH1 0 -1167
DWIDTH1 0 -28
BITMAP 
FC
FC
1C
1C
1C
1C
1C
1C
1C
1C
1C
1C
1C
1C
1C
1C
1C
1C
1C
1C
1C
FC
FC
ENDCHAR
STARTCHAR asciicircum
ENCODING 94
SWIDTH 469 0
DWIDTH 15 0
BBX 13 5 1 13
VVECTOR 8 22
SWIDTH1 0 -1167
DWIDTH1 0 -28
BITMAP 
0F80
1FC0
3DE0
7070
C018
ENDCHAR
STARTCHAR underscore
ENCODING 95
SWIDTH 562 0
DWIDTH 18 0
BBX 18 2 0 -3
VVECTOR 9 22
SWIDTH1 0 -1167
DWIDTH1 0 -28
BITMAP 
FFFFC0
FFFFC0
ENDCHAR
STARTCHAR grave
ENCODING 96
SWIDTH 344 0
DWIDTH 11 0
BBX 6 3 3 14
VVECTOR 7 22
SWIDTH1 0 -1167
DWIDTH1 0 -28
BITMAP 
F0
38
0C
ENDCHAR
STARTCHAR a
ENCODING 97
SWIDTH 562 0
DWIDTH 18 0
BBX 17 13 1 0
VVECTOR 10 22
SWIDTH1 0 -1167
DWIDTH1 0 -28
BITMAP 
0FF000
3FFC00
781C00
700E00
003E00
0FFE00
3FCE00
700E00
E00E00
E01E00
F07E00
7FEF80
1F8780
ENDCHAR
STARTCHAR b
ENCODING 98
SWIDTH 562 0
DWIDTH 18 0
BBX 15 18 2 0
VVECTOR 10 22
SWIDTH1 0 -1167
DWIDTH1 0 -28
BITMAP 
E000
E000
E000
E000
E000
EFE0
FFF8
F83C
F01C
E00E
E00E
E00E
E00E
E00E
F01C
F83C
FFF8
EFE0
ENDCHAR
STARTCHAR c
ENCODING 99
SWIDTH 500 0
DWIDTH 16 0
BBX 15 13 1 0
VVECTOR 9 22
SWIDTH1 0 -1167
DWIDTH1 0 -28
BITMAP 
0FF0
3FFC
781E
700E
E000
E000
E000
E000
E000
700E
781E
3FFC
0FF0
ENDCHAR
STARTCHAR d
ENCODING 100
SWIDTH 562 0
DWIDTH 18 0
BBX 15 18 1 0
VVECTOR 8 22
SWIDTH1 0 -1167
DWIDTH1 0 -28
BITMAP 
000E
000E
000E
000E
000E
0FEE
3FFE
783E
701E
E00E
E00E
E00E
E00E
E00E
701E
783E
3FFE
0FEE
ENDCHAR
STARTCHAR e
ENCODING 101
SWIDTH 531 0
DWIDTH 17 0
BBX 15 13 1 0
VVECTOR 9 22
SWIDTH1 0 -1167
DWIDTH1 0 -28
BITMAP 
0FE0
3FF8
783C
701C
E00E
FFFE
FFFE
E000
E000
700E
781E
3FFC
0FF0
ENDCHAR
STARTCHAR f
ENCODING 102
SWIDTH 281 0
DWIDTH 9 0
BBX 9 18 0 0
VVECTOR 5 22
SWIDTH1 0 -1167
DWIDTH1 0 -28
BITMAP 
0F80
1F80
1C00
1C00
1C00
FF80
FF80
1C00
1C00
1C00
1C00
1C00
1C00
1C00
1C00
1C00
1C00
1C00
ENDCHAR
STARTCHAR g
ENCODING 103
SWIDTH 562 0
DWIDTH 18 0
BBX 15 18 1 -5
VVECTOR 8 22
SWIDTH1 0 -1167
DWIDTH1 0 -28
BITMAP 
0FEE
3FFE
783E
701E
E00E
E00E
E00E
E00E
E00E
701E
783E
3FFE
0FEE
000E
700E
781E
3FFC
0FF0
ENDCHAR
STARTCHAR h
ENCODING 104
SWIDTH 562 0
DWIDTH 18 0
BBX 14 18 2 0
VVECTOR 9 22
SWIDTH1 0 -1167
DWIDTH1 0 -28
BITMAP 
E000
E000
E000
E000
E000
E7E0
EFF8
FC38
F01C
E01C
E01C
E01C
E01C
E01C
E01C
E01C
E01C
E01C
ENDCHAR
STARTCHAR i
ENCODING 105
SWIDTH 219 0
DWIDTH 7 0
BBX 3 18 2 0
VVECTOR 4 22
SWIDTH1 0 -1167
DWIDTH1 0 -28
BITMAP 
E0
E0
E0
00
00
E0
E0
E0
E0
E0
E0
E0
E0
E0
E0
E0
E0
E0
ENDCHAR
STARTCHAR j
ENCODING 106
SWIDTH 219 0
DWIDTH 7 0
BBX 5 23 0 -5
VVECTOR 2 22
SWIDTH1 0 -1167
DWIDTH1 0 -28
BITMAP 
38
38
38
00
00
38
38
38
38
38
38
38
38
38
38
38
38
38
38
38
38
F8
E0
ENDCHAR
STARTCHAR k
ENCODING 107
SWIDTH 500 0
DWIDTH 16 0
BBX 14 18 2 0
VVECTOR 10 22
SWIDTH1 0 -1167
DWIDTH1 0 -28
BITMAP 
E000
E000
E000
E000
E000
E078
E0F0
E1E0
E3C0
E780
EF00
FF00
FF80
F3C0
E1E0
E0F0
E078
E03C
ENDCHAR
STARTCHAR l
ENCODING 108
SWIDTH 219 0
DWIDTH 7 0
BBX 3 18 2 0
VVECTOR 4 22
SWIDTH1 0 -1167
DWIDTH1 0 -28
BITMAP 
E0
E0
E0
E0
E0
E0
E0
E0
E0
E0
E0
E0
E0
E0
E0
E0
E0
E0
ENDCHAR
STARTCHAR m
ENCODING 109
SWIDTH 844 0
DWIDTH 27 0
BBX 23 13 2 0
VVECTOR 14 22
SWIDTH1 0 -1167
DWIDTH1 0 -28
BITMAP 
E7C1F0
EFF7FC
FC7F1C
F03C0E
E0380E
E0380E
E0380E
E0380E
E0380E
E0380E
E0380E
E0380E
E0380E
ENDCHAR
STARTCHAR n
ENCODING 110
SWIDTH 562 0
DWIDTH 18 0
BBX 14 13 2 0
VVECTOR 9 22
SWIDTH1 0 -1167
DWIDTH1 0 -28
BITMAP 
E7E0
EFF8
FC38
F01C
E01C
E01C
E01C
E01C
E01C
E01C
E01C
E01C
E01C
ENDCHAR
STARTCHAR o
ENCODING 111
SWIDTH 562 0
DWIDTH 18 0
BBX 16 13 1 0
VVECTOR 9 22
SWIDTH1 0 -1167
DWIDTH1 0 -28
BITMAP 
0FF0
3FFC
781E
700E
E007
E007
E007
E007
E007
700E
781E
3FFC
0FF0
ENDCHAR
STARTCHAR p
ENCODING 112
SWIDTH 562 0
DWIDTH 18 0
BBX 15 18 2 -5
VVECTOR 10 22
SWIDTH1 0 -1167
DWIDTH1 0 -28
BITMAP 
EFE0
FFF8
F83C
F01C
E00E
E00E
E00E
E00E
E00E
F01C
F83C
FFF8
EFE0
E000
E000
E000
E000
E000
ENDCHAR
STARTCHAR q
ENCODING 113
SWIDTH 562 0
DWIDTH 18 0
BBX 15 18 1 -5
VVECTOR 8 22
SWIDTH1 0 -1167
DWIDTH1 0 -28
BITMAP 
0FEE
3FFE
783E
701E
E00E
E00E
E00E
E00E
E00E
701E
783E
3FFE
0FEE
000E
000E
000E
000E
000E
ENDCHAR
STARTCHAR r
ENCODING 114
SWIDTH 344 0
DWIDTH 11 0
BBX 9 13 2 0
VVECTOR 8 22
SWIDTH1 0 -1167
DWIDTH1 0 -28
BITMAP 
E780
EF80
FC00
F000
E000
E000
E000
E000
E000
E000
E000
E000
E000
ENDCHAR
STARTCHAR s
ENCODING 115
SWIDTH 500 0
DWIDTH 16 0
BBX 14 13 1 0
VVECTOR 8 22
SWIDTH1 0 -1167
DWIDTH1 0 -28
BITMAP 
1FC0
7FF0
F078
E038
F000
7F00
1FF0
00F8
001C
E01C
F03C
7FF8
1FE0
ENDCHAR
STARTCHAR t
ENCODING 116
SWIDTH 281 0
DWIDTH 9 0
BBX 9 17 0 0
VVECTOR 5 22
SWIDTH1 0 -1167
DWIDTH1 0 -28
BITMAP 
1C00
1C00
1C00
1C00
FF80
FF80
1C00
1C00
1C00
1C00
1C00
1C00
1C00
1C00
1C00
1F80
0F80
ENDCHAR
STARTCHAR u
ENCODING 117
SWIDTH 562 0
DWIDTH 18 0
BBX 14 13 2 0
VVECTOR 9 22
SWIDTH1 0 -1167
DWIDTH1 0 -28
BITMAP 
E01C
E01C
E01C
E01C
E01C
E01C
E01C
E01C
E01C
E03C
70FC
7FDC
1F9C
ENDCHAR
STARTCHAR v
ENCODING 118
SWIDTH 469 0
DWIDTH 15 0
BBX 15 13 0 0
VVECTOR 8 22
SWIDTH1 0 -1167
DWIDTH1 0 -28
BITMAP 
E00E
E00E
701C
701C
3838
3838
1C70
1C70
0EE0
0EE0
07C0
07C0
0380
ENDCHAR
STARTCHAR w
ENCODING 119
SWIDTH 719 0
DWIDTH 23 0
BBX 23 13 0 0
VVECTOR 12 22
SWIDTH1 0 -1167
DWIDTH1 0 -28
BITMAP 
E0380E
E0380E
707C1C
706C1C
38EE38
38EE38
38EE38
1DC770
1DC770
0D8360
0F83E0
0701C0
0701C0
ENDCHAR
STARTCHAR x
ENCODING 120
SWIDTH 469 0
DWIDTH 15 0
BBX 15 13 0 0
VVECTOR 8 22
SWIDTH1 0 -1167
DWIDTH1 0 -28
BITMAP 
E00E
701C
3838
1C70
0EE0
07C0
0380
07C0
0EE0
1C70
3838
701C
E00E
ENDCHAR
STARTCHAR y
ENCODING 121
SWIDTH 469 0
DWIDTH 15 0
BBX 15 18 0 -5
VVECTOR 8 22
SWIDTH1 0 -1167
DWIDTH1 0 -28
BITMAP 
E00E
E00E
701C
701C
3838
3838
1C70
1C70
0EE0
0EE0
07C0
07C0
0380
0380
0300
0700
3E00
3C00
ENDCHAR
STARTCHAR z
ENCODING 122
SWIDTH 500 0
DWIDTH 16 0
BBX 14 13 1 0
VVECTOR 8 22
SWIDTH1 0 -1167
DWIDTH1 0 -28
BITMAP 
FFFC
FFFC
0078
00F0
01E0
03C0
0780
0F00
1E00
3C00
7800
FFFC
FFFC
ENDCHAR
STARTCHAR braceleft
ENCODING 123
SWIDTH 344 0
DWIDTH 11 0
BBX 10 24 1 -6
VVECTOR 7 22
SWIDTH1 0 -1167
DWIDTH1 0 -28
BITMAP 
03C0
0FC0
0E00
1C00
1C00
1C00
1C00
1C00
1C00
1800
3800
F000
F000
3800
1800
1C00
1C00
1C00
1C00
1C00
1C00
0E00
0FC0
03C0
ENDCHAR
STARTCHAR bar
ENCODING 124
SWIDTH 219 0
DWIDTH 7 0
BBX 3 24 2 -6
VVECTOR 4 22
SWIDTH1 0 -1167
DWIDTH1 0 -28
BITMAP 
E0
E0
E0
E0
E0
E0
E0
E0
E0
E0
E0
E0
E0
E0
E0
E0
E0
E0
E0
E0
E0
E0
E0
E0
ENDCHAR
STARTCHAR braceright
ENCODING 125
SWIDTH 344 0
DWIDTH 11 0
BBX 10 24 1 -6
VVECTOR 7 22
SWIDTH1 0 -1167
DWIDTH1 0 -28
BITMAP 
F000
FC00
1C00
0E00
0E00
0E00
0E00
0E00
0E00
0600
0700
03C0
03C0
0700
0600
0E00
0E00
0E00
0E00
0E00
0E00
1C00
FC00
F000
ENDCHAR
STARTCHAR asciitilde
ENCODING 126
SWIDTH 594 0
DWIDTH 19 0
BBX 17 4 1 14
VVECTOR 10 22
SWIDTH1 0 -1167
DWIDTH1 0 -28
BITMAP 
1F0180
3FC300
61FE00
C07C00
ENDCHAR
STARTCHAR uni007F
ENCODING 127
SWIDTH 344 0
DWIDTH 11 0
BBX 5 18 3 0
VVECTOR 6 22
SWIDTH1 0 -1167
DWIDTH1 0 -28
BITMAP 
F8
F8
F8
F8
F8
F8
F8
F8
F8
F8
F8
F8
F8
F8
F8
F8
F8
F8
ENDCHAR
STARTCHAR char80
ENCODING 128
SWIDTH 344 0
DWIDTH 11 0
BBX 5 18 3 0
VVECTOR 6 22
SWIDTH1 0 -1167
DWIDTH1 0 -28
BITMAP 
F8
F8
F8
F8
F8
F8
F8
F8
F8
F8
F8
F8
F8
F8
F8
F8
F8
F8
ENDCHAR
STARTCHAR char81
ENCODING 129
SWIDTH 344 0
DWIDTH 11 0
BBX 5 18 3 0
VVECTOR 6 22
SWIDTH1 0 -1167
DWIDTH1 0 -28
BITMAP 
F8
F8
F8
F8
F8
F8
F8
F8
F8
F8
F8
F8
F8
F8
F8
F8
F8
F8
ENDCHAR
STARTCHAR char82
ENCODING 130
SWIDTH 344 0
DWIDTH 11 0
BBX 5 18 3 0
VVECTOR 6 22
SWIDTH1 0 -1167
DWIDTH1 0 -28
BITMAP 
F8
F8
F8
F8
F8
F8
F8
F8
F8
F8
F8
F8
F8
F8
F8
F8
F8
F8
ENDCHAR
STARTCHAR char83
ENCODING 131
SWIDTH 344 0
DWIDTH 11 0
BBX 5 18 3 0
VVECTOR 6 22
SWIDTH1 0 -1167
DWIDTH1 0 -28
BITMAP 
F8
F8
F8
F8
F8
F8
F8
F8
F8
F8
F8
F8
F8
F8
F8
F8
F8
F8
ENDCHAR
STARTCHAR char84
ENCODING 132
SWIDTH 344 0
DWIDTH 11 0
BBX 5 18 3 0
VVECTOR 6 22
SWIDTH1 0 -1167
DWIDTH1 0 -28
BITMAP 
F8
F8
F8
F8
F8
F8
F8
F8
F8
F8
F8
F8
F8
F8
F8
F8
F8
F8
ENDCHAR
STARTCHAR char85
ENCODING 133
SWIDTH 344 0
DWIDTH 11 0
BBX 5 18 3 0
VVECTOR 6 22
SWIDTH1 0 -1167
DWIDTH1 0 -28
BITMAP 
F8
F8
F8
F8
F8
F8
F8
F8
F8
F8
F8
F8
F8
F8
F8
F8
F8
F8
ENDCHAR
STARTCHAR char86
ENCODING 134
SWIDTH 344 0
DWIDTH 11 0
BBX 5 18 3 0
VVECTOR 6 22
SWIDTH1 0 -1167
DWIDTH1 0 -28
BITMAP 
F8
F8
F8
F8
F8
F8
F8
F8
F8
F8
F8
F8
F8
F8
F8
F8
F8
F8
ENDCHAR
STARTCHAR char87
ENCODING 135
SWIDTH 344 0
DWIDTH 11 0
BBX 5 18 3 0
VVECTOR 6 22
SWIDTH1 0 -1167
DWIDTH1 0 -28
BITMAP 
F8
F8
F8
F8
F8
F8
F8
F8
F8
F8
F8
F8
F8
F8
F8
F8
F8
F8
ENDCHAR
STARTCHAR char88
ENCODING 136
SWIDTH 344 0
DWIDTH 11 0
BBX 5 18 3 0
VVECTOR 6 22
SWIDTH1 0 -1167
DWIDTH1 0 -28
BITMAP 
F8
F8
F8
F8
F8
F8
F8
F8
F8
F8
F8
F8
F8
F8
F8
F8
F8
F8
ENDCHAR
STARTCHAR char89
ENCODING 137
SWIDTH 344 0
DWIDTH 11 0
BBX 5 18 3 0
VVECTOR 6 22
SWIDTH1 0 -1167
DWIDTH1 0 -28
BITMAP 
F8
F8
F8
F8
F8
F8
F8
F8
F8
F8
F8
F8
F8
F8
F8
F8
F8
F8
ENDCHAR
STARTCHAR char8A
ENCODING 138
SWIDTH 344 0
DWIDTH 11 0
BBX 5 18 3 0
VVECTOR 6 22
SWIDTH1 0 -1167
DWIDTH1 0 -28
BITMAP 
F8
F8
F8
F8
F8
F8
F8
F8
F8
F8
F8
F8
F8
F8
F8
F8
F8
F8
ENDCHAR
STARTCHAR char8B
ENCODING 139
SWIDTH 344 0
DWIDTH 11 0
BBX 5 18 3 0
VVECTOR 6 22
SWIDTH1 0 -1167
DWIDTH1 0 -28
BITMAP 
F8
F8
F8
F8
F8
F8
F8
F8
F8
F8
F8
F8
F8
F8
F8
F8
F8
F8
ENDCHAR
STARTCHAR char8C
ENCODING 140
SWIDTH 344 0
DWIDTH 11 0
BBX 5 18 3 0
VVECTOR 6 22
SWIDTH1 0 -1167
DWIDTH1 0 -28
BITMAP 
F8
F8
F8
F8
F8
F8
F8
F8
F8
F8
F8
F8
F8
F8
F8
F8
F8
F8
ENDCHAR
STARTCHAR char8D
ENCODING 141
SWIDTH 344 0
DWIDTH 11 0
BBX 5 18 3 0
VVECTOR 6 22
SWIDTH1 0 -1167
DWIDTH1 0 -28
BITMAP 
F8
F8
F8
F8
F8
F8
F8
F8
F8
F8
F8
F8
F8
F8
F8
F8
F8
F8
ENDCHAR
STARTCHAR char8E
ENCODING 142
SWIDTH 344 0
DWIDTH 11 0
BBX 5 18 3 0
VVECTOR 6 22
SWIDTH1 0 -1167
DWIDTH1 0 -28
BITMAP 
F8
F8
F8
F8
F8
F8
F8
F8
F8
F8
F8
F8
F8
F8
F8
F8
F8
F8
ENDCHAR
STARTCHAR char8F
ENCODING 143
SWIDTH 344 0
DWIDTH 11 0
BBX 5 18 3 0
VVECTOR 6 22
SWIDTH1 0 -1167
DWIDTH1 0 -28
BITMAP 
F8
F8
F8
F8
F8
F8
F8
F8
F8
F8
F8
F8
F8
F8
F8
F8
F8
F8
ENDCHAR
STARTCHAR char90
ENCODING 144
SWIDTH 344 0
DWIDTH 11 0
BBX 5 18 3 0
VVECTOR 6 22
SWIDTH1 0 -1167
DWIDTH1 0 -28
BITMAP 
F8
F8
F8
F8
F8
F8
F8
F8
F8
F8
F8
F8
F8
F8
F8
F8
F8
F8
ENDCHAR
STARTCHAR quoteleft
ENCODING 145
SWIDTH 281 0
DWIDTH 9 0
BBX 3 6 3 12
VVECTOR 5 22
SWIDTH1 0 -1167
DWIDTH1 0 -28
BITMAP 
60
C0
80
E0
E0
E0
ENDCHAR
STARTCHAR quoteright
ENCODING 146
SWIDTH 281 0
DWIDTH 9 0
BBX 3 6 3 12
VVECTOR 5 22
SWIDTH1 0 -1167
DWIDTH1 0 -28
BITMAP 
E0
E0
E0
20
60
C0
ENDCHAR
STARTCHAR char93
ENCODING 147
SWIDTH 344 0
DWIDTH 11 0
BBX 5 18 3 0
VVECTOR 6 22
SWIDTH1 0 -1167
DWIDTH1 0 -28
BITMAP 
F8
F8
F8
F8
F8
F8
F8
F8
F8
F8
F8
F8
F8
F8
F8
F8
F8
F8
ENDCHAR
STARTCHAR char94
ENCODING 148
SWIDTH 344 0
DWIDTH 11 0
BBX 5 18 3 0
VVECTOR 6 22
SWIDTH1 0 -1167
DWIDTH1 0 -28
BITMAP 
F8
F8
F8
F8
F8
F8
F8
F8
F8
F8
F8
F8
F8
F8
F8
F8
F8
F8
ENDCHAR
STARTCHAR char95
ENCODING 149
SWIDTH 344 0
DWIDTH 11 0
BBX 5 18 3 0
VVECTOR 6 22
SWIDTH1 0 -1167
DWIDTH1 0 -28
BITMAP 
F8
F8
F8
F8
F8
F8
F8
F8
F8
F8
F8
F8
F8
F8
F8
F8
F8
F8
ENDCHAR
STARTCHAR char96
ENCODING 150
SWIDTH 344 0
DWIDTH 11 0
BBX 5 18 3 0
VVECTOR 6 22
SWIDTH1 0 -1167
DWIDTH1 0 -28
BITMAP 
F8
F8
F8
F8
F8
F8
F8
F8
F8
F8
F8
F8
F8
F8
F8
F8
F8
F8
ENDCHAR
STARTCHAR char97
ENCODING 151
SWIDTH 344 0
DWIDTH 11 0
BBX 5 18 3 0
VVECTOR 6 22
SWIDTH1 0 -1167
DWIDTH1 0 -28
BITMAP 
F8
F8
F8
F8
F8
F8
F8
F8
F8
F8
F8
F8
F8
F8
F8
F8
F8
F8
ENDCHAR
STARTCHAR char98
ENCODING 152
SWIDTH 344 0
DWIDTH 11 0
BBX 5 18 3 0
VVECTOR 6 22
SWIDTH1 0 -1167
DWIDTH1 0 -28
BITMAP 
F8
F8
F8
F8
F8
F8
F8
F8
F8
F8
F8
F8
F8
F8
F8
F8
F8
F8
ENDCHAR
STARTCHAR char99
ENCODING 153
SWIDTH 344 0
DWIDTH 11 0
BBX 5 18 3 0
VVECTOR 6 22
SWIDTH1 0 -1167
DWIDTH1 0 -28
BITMAP 
F8
F8
F8
F8
F8
F8
F8
F8
F8
F8
F8
F8
F8
F8
F8
F8
F8
F8
ENDCHAR
STARTCHAR char9A
ENCODING 154
SWIDTH 344 0
DWIDTH 11 0
BBX 5 18 3 0
VVECTOR 6 22
SWIDTH1 0 -1167
DWIDTH1 0 -28
BITMAP 
F8
F8
F8
F8
F8
F8
F8
F8
F8
F8
F8
F8
F8
F8
F8
F8
F8
F8
ENDCHAR
STARTCHAR char9B
ENCODING 155
SWIDTH 344 0
DWIDTH 11 0
BBX 5 18 3 0
VVECTOR 6 22
SWIDTH1 0 -1167
DWIDTH1 0 -28
BITMAP 
F8
F8
F8
F8
F8
F8
F8
F8
F8
F8
F8
F8
F8
F8
F8
F8
F8
F8
ENDCHAR
STARTCHAR char9C
ENCODING 156
SWIDTH 344 0
DWIDTH 11 0
BBX 5 18 3 0
VVECTOR 6 22
SWIDTH1 0 -1167
DWIDTH1 0 -28
BITMAP 
F8
F8
F8
F8
F8
F8
F8
F8
F8
F8
F8
F8
F8
F8
F8
F8
F8
F8
ENDCHAR
STARTCHAR char9D
ENCODING 157
SWIDTH 344 0
DWIDTH 11 0
BBX 5 18 3 0
VVECTOR 6 22
SWIDTH1 0 -1167
DWIDTH1 0 -28
BITMAP 
F8
F8
F8
F8
F8
F8
F8
F8
F8
F8
F8
F8
F8
F8
F8
F8
F8
F8
ENDCHAR
STARTCHAR char9E
ENCODING 158
SWIDTH 344 0
DWIDTH 11 0
BBX 5 18 3 0
VVECTOR 6 22
SWIDTH1 0 -1167
DWIDTH1 0 -28
BITMAP 
F8
F8
F8
F8
F8
F8
F8
F8
F8
F8
F8
F8
F8
F8
F8
F8
F8
F8
ENDCHAR
STARTCHAR char9F
ENCODING 159
SWIDTH 344 0
DWIDTH 11 0
BBX 5 18 3 0
VVECTOR 6 22
SWIDTH1 0 -1167
DWIDTH1 0 -28
BITMAP 
F8
F8
F8
F8
F8
F8
F8
F8
F8
F8
F8
F8
F8
F8
F8
F8
F8
F8
ENDCHAR
STARTCHAR uni00A0
ENCODING 160
SWIDTH 281 0
DWIDTH 9 0
BBX 0 0 9 22
VVECTOR 14 22
SWIDTH1 0 -1167
DWIDTH1 0 -28
BITMAP 
ENDCHAR
STARTCHAR exclamdown
ENCODING 161
SWIDTH 281 0
DWIDTH 9 0
BBX 3 18 3 -5
VVECTOR 5 22
SWIDTH1 0 -1167
DWIDTH1 0 -28
BITMAP 
E0
E0
E0
00
00
40
40
E0
E0
E0
E0
E0
E0
E0
E0
E0
E0
E0
ENDCHAR
STARTCHAR cent
ENCODING 162
SWIDTH 562 0
DWIDTH 18 0
BBX 15 18 2 -2
VVECTOR 10 22
SWIDTH1 0 -1167
DWIDTH1 0 -28
BITMAP 
0018
0018
0030
0FF0
3FFC
787E
70CE
E0C0
E180
E180
E300
E300
760E
7E1E
3FFC
0FF0
1800
1800
ENDCHAR
STARTCHAR sterling
ENCODING 163
SWIDTH 562 0
DWIDTH 18 0
BBX 15 18 2 0
VVECTOR 10 22
SWIDTH1 0 -1167
DWIDTH1 0 -28
BITMAP 
0FF0
3FFC
7C3C
700E
700E
7000
3000
3800
FFE0
1C00
1C00
1C00
1800
3800
3000
7FC6
FFFE
607C
ENDCHAR
STARTCHAR currency
ENCODING 164
SWIDTH 562 0
DWIDTH 18 0
BBX 16 12 1 6
VVECTOR 9 22
SWIDTH1 0 -1167
DWIDTH1 0 -28
BITMAP 
C003
67E6
3FFC
381C
700E
700E
700E
700E
381C
3FFC
67E6
C003
ENDCHAR
STARTCHAR yen
ENCODING 165
SWIDTH 562 0
DWIDTH 18 0
BBX 18 18 0 0
VVECTOR 9 22
SWIDTH1 0 -1167
DWIDTH1 0 -28
BITMAP 
C001C0
E00380
700700
380E00
1C1C00
0E3800
077000
FFFF80
03E000
01C000
FFFF80
01C000
01C000
01C000
01C000
01C000
01C000
01C000
ENDCHAR
STARTCHAR brokenbar
ENCODING 166
SWIDTH 219 0
DWIDTH 7 0
BBX 3 23 2 -6
VVECTOR 4 22
SWIDTH1 0 -1167
DWIDTH1 0 -28
BITMAP 
E0
E0
E0
E0
E0
E0
E0
E0
E0
E0
00
00
00
E0
E0
E0
E0
E0
E0
E0
E0
E0
E0
ENDCHAR
STARTCHAR section
ENCODING 167
SWIDTH 562 0
DWIDTH 18 0
BBX 14 21 2 -3
VVECTOR 9 22
SWIDTH1 0 -1167
DWIDTH1 0 -28
BITMAP 
0780
1FE0
3870
3030
3800
1E00
3F80
73E0
E0F8
E038
E01C
701C
7C1C
1F38
07F0
01E0
0070
7030
3870
3FE0
0F80
ENDCHAR
STARTCHAR dieresis
ENCODING 168
SWIDTH 344 0
DWIDTH 11 0
BBX 9 2 1 15
VVECTOR 6 22
SWIDTH1 0 -1167
DWIDTH1 0 -28
BITMAP 
E380
E380
ENDCHAR
STARTCHAR copyright
ENCODING 169
SWIDTH 750 0
DWIDTH 24 0
BBX 22 17 1 1
VVECTOR 12 22
SWIDTH1 0 -1167
DWIDTH1 0 -28
BITMAP 
01FE00
078780
1C00E0
30F830
63FE18
638718
C7030C
C7000C
C7000C
C7000C
C7030C
638718
63FE18
30F830
1C00E0
078780
01FE00
ENDCHAR
STARTCHAR ordfeminine
ENCODING 170
SWIDTH 375 0
DWIDTH 12 0
BBX 10 11 1 7
VVECTOR 6 22
SWIDTH1 0 -1167
DWIDTH1 0 -28
BITMAP 
1E00
3300
6180
0180
1F80
7180
6180
6380
3CC0
0000
FFC0
ENDCHAR
STARTCHAR guillemotleft
ENCODING 171
SWIDTH 562 0
DWIDTH 18 0
BBX 13 9 2 1
VVECTOR 8 22
SWIDTH1 0 -1167
DWIDTH1 0 -28
BITMAP 
0618
1C70
38E0
71C0
E380
71C0
38E0
1C70
0618
ENDCHAR
STARTCHAR logicalnot
ENCODING 172
SWIDTH 594 0
DWIDTH 19 0
BBX 16 5 1 4
VVECTOR 9 22
SWIDTH1 0 -1167
DWIDTH1 0 -28
BITMAP 
FFFF
FFFF
0007
0007
0007
ENDCHAR
STARTCHAR uni00AD
ENCODING 173
SWIDTH 313 0
DWIDTH 10 0
BBX 8 2 1 5
VVECTOR 5 22
SWIDTH1 0 -1167
DWIDTH1 0 -28
BITMAP 
FF
FF
ENDCHAR
STARTCHAR registered
ENCODING 174
SWIDTH 750 0
DWIDTH 24 0
BBX 22 17 1 1
VVECTOR 12 22
SWIDTH1 0 -1167
DWIDTH1 0 -28
BITMAP 
01FE00
078780
1C00E0
33FC30
63FF18
638718
C3870C
C3FE0C
C3FC0C
C38E0C
C38E0C
638718
638718
300030
1C00E0
078780
01FE00
ENDCHAR
STARTCHAR macron
ENCODING 175
SWIDTH 500 0
DWIDTH 16 0
BBX 16 2 0 19
VVECTOR 8 22
SWIDTH1 0 -1167
DWIDTH1 0 -28
BITMAP 
FFFF
FFFF
ENDCHAR
STARTCHAR degree
ENCODING 176
SWIDTH 344 0
DWIDTH 11 0
BBX 9 7 1 11
VVECTOR 6 22
SWIDTH1 0 -1167
DWIDTH1 0 -28
BITMAP 
3E00
6300
C180
C180
C180
6300
3E00
ENDCHAR
STARTCHAR plusminus
ENCODING 177
SWIDTH 594 0
DWIDTH 19 0
BBX 17 16 1 0
VVECTOR 10 22
SWIDTH1 0 -1167
DWIDTH1 0 -28
BITMAP 
01C000
01C000
01C000
01C000
01C000
FFFF80
FFFF80
01C000
01C000
01C000
01C000
01C000
000000
000000
FFFF80
FFFF80
ENDCHAR
STARTCHAR uni00B2
ENCODING 178
SWIDTH 281 0
DWIDTH 9 0
BBX 8 9 1 9
VVECTOR 6 22
SWIDTH1 0 -1167
DWIDTH1 0 -28
BITMAP 
7E
E7
C3
07
0E
1C
38
70
FF
ENDCHAR
STARTCHAR uni00B3
ENCODING 179
SWIDTH 281 0
DWIDTH 9 0
BBX 8 9 1 9
VVECTOR 6 22
SWIDTH1 0 -1167
DWIDTH1 0 -28
BITMAP 
7E
E7
C3
07
1E
07
C3
E7
7E
ENDCHAR
STARTCHAR acute
ENCODING 180
SWIDTH 344 0
DWIDTH 11 0
BBX 6 3 3 14
VVECTOR 7 22
SWIDTH1 0 -1167
DWIDTH1 0 -28
BITMAP 
3C
70
C0
ENDCHAR
STARTCHAR mu
ENCODING 181
SWIDTH 500 0
DWIDTH 16 0
BBX 15 16 1 -5
VVECTOR 9 22
SWIDTH1 0 -1167
DWIDTH1 0 -28
BITMAP 
E070
E070
E070
E070
E070
E070
E070
E070
F072
FBFE
EF9C
E000
E000
E000
E000
E000
ENDCHAR
STARTCHAR paragraph
ENCODING 182
SWIDTH 531 0
DWIDTH 17 0
BBX 14 19 2 -2
VVECTOR 10 22
SWIDTH1 0 -1167
DWIDTH1 0 -28
BITMAP 
1FFC
7E30
7E30
FE30
FE30
FE30
7E30
7E30
1E30
0630
0630
0630
0630
0630
0630
0630
0630
0630
0630
ENDCHAR
STARTCHAR periodcentered
ENCODING 183
SWIDTH 281 0
DWIDTH 9 0
BBX 3 3 3 7
VVECTOR 5 22
SWIDTH1 0 -1167
DWIDTH1 0 -28
BITMAP 
E0
E0
E0
ENDCHAR
STARTCHAR cedilla
ENCODING 184
SWIDTH 344 0
DWIDTH 11 0
BBX 7 5 2 -5
VVECTOR 6 22
SWIDTH1 0 -1167
DWIDTH1 0 -28
BITMAP 
30
3C
06
C6
7C
ENDCHAR
STARTCHAR uni00B9
ENCODING 185
SWIDTH 281 0
DWIDTH 9 0
BBX 5 9 2 9
VVECTOR 5 22
SWIDTH1 0 -1167
DWIDTH1 0 -28
BITMAP 
18
38
F8
18
18
18
18
18
18
ENDCHAR
STARTCHAR ordmasculine
ENCODING 186
SWIDTH 375 0
DWIDTH 12 0
BBX 10 11 1 7
VVECTOR 6 22
SWIDTH1 0 -1167
DWIDTH1 0 -28
BITMAP 
3F00
6180
C0C0
C0C0
C0C0
C0C0
C0C0
6180
3F00
0000
FFC0
ENDCHAR
STARTCHAR guillemotright
ENCODING 187
SWIDTH 562 0
DWIDTH 18 0
BBX 13 9 3 1
VVECTOR 10 22
SWIDTH1 0 -1167
DWIDTH1 0 -28
BITMAP 
C300
71C0
38E0
1C70
0E38
1C70
38E0
71C0
C300
ENDCHAR
STARTCHAR onequarter
ENCODING 188
SWIDTH 719 0
DWIDTH 23 0
BBX 20 18 1 0
VVECTOR 11 22
SWIDTH1 0 -1167
DWIDTH1 0 -28
BITMAP 
180030
380060
F800C0
180180
180300
180600
180C00
181800
183000
006060
00C0E0
0181E0
030360
060660
0C0C60
180FF0
300060
600060
ENDCHAR
STARTCHAR onehalf
ENCODING 189
SWIDTH 719 0
DWIDTH 23 0
BBX 21 18 1 0
VVECTOR 12 22
SWIDTH1 0 -1167
DWIDTH1 0 -28
BITMAP 
180030
380060
F800C0
180180
180300
180600
180C00
181800
183000
1861E0
00C330
018618
030030
060060
0C00C0
180180
300300
6007F8
ENDCHAR
STARTCHAR threequarters
ENCODING 190
SWIDTH 719 0
DWIDTH 23 0
BBX 20 18 1 0
VVECTOR 11 22
SWIDTH1 0 -1167
DWIDTH1 0 -28
BITMAP 
3C0030
660060
C300C0
060180
1C0300
060600
C30C00
661800
3C3000
006060
00C0E0
0181E0
030360
060660
0C0C60
180FF0
300060
600060
ENDCHAR
STARTCHAR questiondown
ENCODING 191
SWIDTH 531 0
DWIDTH 17 0
BBX 14 18 2 -4
VVECTOR 10 22
SWIDTH1 0 -1167
DWIDTH1 0 -28
BITMAP 
0700
0700
0700
0000
0000
0700
0700
0F00
1E00
3C00
7800
7000
E000
E01C
E01C
7038
7FF8
1FE0
ENDCHAR
STARTCHAR Agrave
ENCODING 192
SWIDTH 688 0
DWIDTH 22 0
BBX 21 22 1 0
VVECTOR 12 22
SWIDTH1 0 -1167
DWIDTH1 0 -28
BITMAP 
01E000
007000
001800
000000
00F800
00F800
01FC00
01DC00
03DE00
038E00
078F00
070700
0F0780
0E0380
1FFFC0
1FFFC0
3C01E0
3800E0
7800F0
700070
F00078
E00038
ENDCHAR
STARTCHAR Aacute
ENCODING 193
SWIDTH 688 0
DWIDTH 22 0
BBX 21 22 1 0
VVECTOR 12 22
SWIDTH1 0 -1167
DWIDTH1 0 -28
BITMAP 
003C00
007000
00C000
000000
00F800
00F800
01FC00
01DC00
03DE00
038E00
078F00
070700
0F0780
0E0380
1FFFC0
1FFFC0
3C01E0
3800E0
7800F0
700070
F00078
E00038
ENDCHAR
STARTCHAR Acircumflex
ENCODING 194
SWIDTH 688 0
DWIDTH 22 0
BBX 21 22 1 0
VVECTOR 12 22
SWIDTH1 0 -1167
DWIDTH1 0 -28
BITMAP 
00F800
01DC00
030600
000000
00F800
00F800
01FC00
01DC00
03DE00
038E00
078F00
070700
0F0780
0E0380
1FFFC0
1FFFC0
3C01E0
3800E0
7800F0
700070
F00078
E00038
ENDCHAR
STARTCHAR Atilde
ENCODING 195
SWIDTH 688 0
DWIDTH 22 0
BBX 21 22 1 0
VVECTOR 12 22
SWIDTH1 0 -1167
DWIDTH1 0 -28
BITMAP 
03C100
067300
041E00
000000
00F800
00F800
01FC00
01DC00
03DE00
038E00
078F00
070700
0F0780
0E0380
1FFFC0
1FFFC0
3C01E0
3800E0
7800F0
700070
F00078
E00038
ENDCHAR
STARTCHAR Adieresis
ENCODING 196
SWIDTH 688 0
DWIDTH 22 0
BBX 21 22 1 0
VVECTOR 12 22
SWIDTH1 0 -1167
DWIDTH1 0 -28
BITMAP 
070700
070700
000000
000000
00F800
00F800
01FC00
01DC00
03DE00
038E00
078F00
070700
0F0780
0E0380
1FFFC0
1FFFC0
3C01E0
3800E0
7800F0
700070
F00078
E00038
ENDCHAR
STARTCHAR Aring
ENCODING 197
SWIDTH 688 0
DWIDTH 22 0
BBX 21 22 1 0
VVECTOR 12 22
SWIDTH1 0 -1167
DWIDTH1 0 -28
BITMAP 
00F800
018C00
018C00
00F800
00F800
00F800
01FC00
01DC00
03DE00
038E00
078F00
070700
0F0780
0E0380
1FFFC0
1FFFC0
3C01E0
3800E0
7800F0
700070
F00078
E00038
ENDCHAR
STARTCHAR AE
ENCODING 198
SWIDTH 1000 0
DWIDTH 32 0
BBX 30 18 1 0
VVECTOR 16 22
SWIDTH1 0 -1167
DWIDTH1 0 -28
BITMAP 
00FFFFFC
00FFFFFC
01C70000
01C70000
03870000
03870000
07070000
07070000
0E07FFF0
0E07FFF0
1FFF0000
1FFF0000
38070000
38070000
70070000
70070000
E007FFFC
E007FFFC
ENDCHAR
STARTCHAR Ccedilla
ENCODING 199
SWIDTH 719 0
DWIDTH 23 0
BBX 21 23 2 -5
VVECTOR 14 22
SWIDTH1 0 -1167
DWIDTH1 0 -28
BITMAP 
03FF00
0FFFC0
3E01F0
780078
700038
F00000
E00000
E00000
E00000
E00000
E00000
E00000
F00000
700038
780078
3E01F0
0FFFC0
03FF00
003000
003C00
000600
00C600
007C00
ENDCHAR
STARTCHAR Egrave
ENCODING 200
SWIDTH 656 0
DWIDTH 21 0
BBX 17 22 3 0
VVECTOR 13 22
SWIDTH1 0 -1167
DWIDTH1 0 -28
BITMAP 
078000
01C000
006000
000000
FFFF80
FFFF80
E00000
E00000
E00000
E00000
E00000
E00000
FFFE00
FFFE00
E00000
E00000
E00000
E00000
E00000
E00000
FFFF80
FFFF80
ENDCHAR
STARTCHAR Eacute
ENCODING 201
SWIDTH 656 0
DWIDTH 21 0
BBX 17 22 3 0
VVECTOR 13 22
SWIDTH1 0 -1167
DWIDTH1 0 -28
BITMAP 
007800
00E000
018000
000000
FFFF80
FFFF80
E00000
E00000
E00000
E00000
E00000
E00000
FFFE00
FFFE00
E00000
E00000
E00000
E00000
E00000
E00000
FFFF80
FFFF80
ENDCHAR
STARTCHAR Ecircumflex
ENCODING 202
SWIDTH 656 0
DWIDTH 21 0
BBX 17 22 3 0
VVECTOR 13 22
SWIDTH1 0 -1167
DWIDTH1 0 -28
BITMAP 
01F000
03B800
060C00
000000
FFFF80
FFFF80
E00000
E00000
E00000
E00000
E00000
E00000
FFFE00
FFFE00
E00000
E00000
E00000
E00000
E00000
E00000
FFFF80
FFFF80
ENDCHAR
STARTCHAR Edieresis
ENCODING 203
SWIDTH 656 0
DWIDTH 21 0
BBX 17 22 3 0
VVECTOR 13 22
SWIDTH1 0 -1167
DWIDTH1 0 -28
BITMAP 
0E0E00
0E0E00
000000
000000
FFFF80
FFFF80
E00000
E00000
E00000
E00000
E00000
E00000
FFFE00
FFFE00
E00000
E00000
E00000
E00000
E00000
E00000
FFFF80
FFFF80
ENDCHAR
STARTCHAR Igrave
ENCODING 204
SWIDTH 250 0
DWIDTH 8 0
BBX 6 22 0 0
VVECTOR 2 22
SWIDTH1 0 -1167
DWIDTH1 0 -28
BITMAP 
F0
38
0C
00
1C
1C
1C
1C
1C
1C
1C
1C
1C
1C
1C
1C
1C
1C
1C
1C
1C
1C
ENDCHAR
STARTCHAR Iacute
ENCODING 205
SWIDTH 250 0
DWIDTH 8 0
BBX 6 22 2 0
VVECTOR 6 22
SWIDTH1 0 -1167
DWIDTH1 0 -28
BITMAP 
3C
70
C0
00
70
70
70
70
70
70
70
70
70
70
70
70
70
70
70
70
70
70
ENDCHAR
STARTCHAR Icircumflex
ENCODING 206
SWIDTH 250 0
DWIDTH 8 0
BBX 8 22 0 0
VVECTOR 4 22
SWIDTH1 0 -1167
DWIDTH1 0 -28
BITMAP 
3E
77
C1
00
1C
1C
1C
1C
1C
1C
1C
1C
1C
1C
1C
1C
1C
1C
1C
1C
1C
1C
ENDCHAR
STARTCHAR Idieresis
ENCODING 207
SWIDTH 250 0
DWIDTH 8 0
BBX 7 22 1 0
VVECTOR 5 22
SWIDTH1 0 -1167
DWIDTH1 0 -28
BITMAP 
EE
EE
00
00
38
38
38
38
38
38
38
38
38
38
38
38
38
38
38
38
38
38
ENDCHAR
STARTCHAR Eth
ENCODING 208
SWIDTH 719 0
DWIDTH 23 0
BBX 21 18 1 0
VVECTOR 12 22
SWIDTH1 0 -1167
DWIDTH1 0 -28
BITMAP 
3FFE00
3FFF80
3803E0
3800F0
380070
380078
380038
380038
FF8038
FF8038
380038
380038
380078
380070
3800F0
3803E0
3FFF80
3FFE00
ENDCHAR
STARTCHAR Ntilde
ENCODING 209
SWIDTH 750 0
DWIDTH 24 0
BBX 19 22 3 0
VVECTOR 13 22
SWIDTH1 0 -1167
DWIDTH1 0 -28
BITMAP 
078200
0CE600
083C00
000000
E000E0
F000E0
F800E0
FC00E0
FE00E0
EF00E0
E780E0
E3C0E0
E1E0E0
E0F0E0
E078E0
E03CE0
E01EE0
E00FE0
E007E0
E003E0
E001E0
E000E0
ENDCHAR
STARTCHAR Ograve
ENCODING 210
SWIDTH 781 0
DWIDTH 25 0
BBX 22 22 2 0
VVECTOR 14 22
SWIDTH1 0 -1167
DWIDTH1 0 -28
BITMAP 
01E000
007000
001800
000000
03FF00
0FFFC0
3E01F0
780078
700038
F0003C
E0001C
E0001C
E0001C
E0001C
E0001C
E0001C
F0003C
700038
780078
3E01F0
0FFFC0
03FF00
ENDCHAR
STARTCHAR Oacute
ENCODING 211
SWIDTH 781 0
DWIDTH 25 0
BBX 22 22 2 0
VVECTOR 14 22
SWIDTH1 0 -1167
DWIDTH1 0 -28
BITMAP 
001E00
003800
006000
000000
03FF00
0FFFC0
3E01F0
780078
700038
F0003C
E0001C
E0001C
E0001C
E0001C
E0001C
E0001C
F0003C
700038
780078
3E01F0
0FFFC0
03FF00
ENDCHAR
STARTCHAR Ocircumflex
ENCODING 212
SWIDTH 781 0
DWIDTH 25 0
BBX 22 22 2 0
VVECTOR 14 22
SWIDTH1 0 -1167
DWIDTH1 0 -28
BITMAP 
00FC00
01CE00
030300
000000
03FF00
0FFFC0
3E01F0
780078
700038
F0003C
E0001C
E0001C
E0001C
E0001C
E0001C
E0001C
F0003C
700038
780078
3E01F0
0FFFC0
03FF00
ENDCHAR
STARTCHAR Otilde
ENCODING 213
SWIDTH 781 0
DWIDTH 25 0
BBX 22 22 2 0
VVECTOR 14 22
SWIDTH1 0 -1167
DWIDTH1 0 -28
BITMAP 
03E080
063180
041F00
000000
03FF00
0FFFC0
3E01F0
780078
700038
F0003C
E0001C
E0001C
E0001C
E0001C
E0001C
E0001C
F0003C
700038
780078
3E01F0
0FFFC0
03FF00
ENDCHAR
STARTCHAR Odieresis
ENCODING 214
SWIDTH 781 0
DWIDTH 25 0
BBX 22 22 2 0
VVECTOR 14 22
SWIDTH1 0 -1167
DWIDTH1 0 -28
BITMAP 
038700
038700
000000
000000
03FF00
0FFFC0
3E01F0
780078
700038
F0003C
E0001C
E0001C
E0001C
E0001C
E0001C
E0001C
F0003C
700038
780078
3E01F0
0FFFC0
03FF00
ENDCHAR
STARTCHAR multiply
ENCODING 215
SWIDTH 594 0
DWIDTH 19 0
BBX 15 12 2 1
VVECTOR 10 22
SWIDTH1 0 -1167
DWIDTH1 0 -28
BITMAP 
F01E
783C
3C78
1EF0
0FE0
07C0
07C0
0FE0
1EF0
3C78
783C
F01E
ENDCHAR
STARTCHAR Oslash
ENCODING 216
SWIDTH 781 0
DWIDTH 25 0
BBX 22 18 2 0
VVECTOR 14 22
SWIDTH1 0 -1167
DWIDTH1 0 -28
BITMAP 
03FF38
0FFFF0
3E01F0
7801F8
7003B8
F0073C
E00E1C
E01C1C
E0381C
E0701C
E0E01C
E1C01C
F3803C
770038
7E0078
3E01F0
3FFFC0
73FF00
ENDCHAR
STARTCHAR Ugrave
ENCODING 217
SWIDTH 719 0
DWIDTH 23 0
BBX 18 22 3 0
VVECTOR 13 22
SWIDTH1 0 -1167
DWIDTH1 0 -28
BITMAP 
078000
01C000
006000
000000
E001C0
E001C0
E001C0
E001C0
E001C0
E001C0
E001C0
E001C0
E001C0
E001C0
E001C0
E001C0
E001C0
E001C0
700380
780780
3FFF00
0FFC00
ENDCHAR
STARTCHAR Uacute
ENCODING 218
SWIDTH 719 0
DWIDTH 23 0
BBX 18 22 3 0
VVECTOR 13 22
SWIDTH1 0 -1167
DWIDTH1 0 -28
BITMAP 
007800
00E000
018000
000000
E001C0
E001C0
E001C0
E001C0
E001C0
E001C0
E001C0
E001C0
E001C0
E001C0
E001C0
E001C0
E001C0
E001C0
700380
780780
3FFF00
0FFC00
ENDCHAR
STARTCHAR Ucircumflex
ENCODING 219
SWIDTH 719 0
DWIDTH 23 0
BBX 18 22 3 0
VVECTOR 13 22
SWIDTH1 0 -1167
DWIDTH1 0 -28
BITMAP 
03F000
073800
0C0C00
000000
E001C0
E001C0
E001C0
E001C0
E001C0
E001C0
E001C0
E001C0
E001C0
E001C0
E001C0
E001C0
E001C0
E001C0
700380
780780
3FFF00
0FFC00
ENDCHAR
STARTCHAR Udieresis
ENCODING 220
SWIDTH 719 0
DWIDTH 23 0
BBX 18 22 3 0
VVECTOR 13 22
SWIDTH1 0 -1167
DWIDTH1 0 -28
BITMAP 
0E1C00
0E1C00
000000
000000
E001C0
E001C0
E001C0
E001C0
E001C0
E001C0
E001C0
E001C0
E001C0
E001C0
E001C0
E001C0
E001C0
E001C0
700380
780780
3FFF00
0FFC00
ENDCHAR
STARTCHAR Yacute
ENCODING 221
SWIDTH 688 0
DWIDTH 22 0
BBX 21 22 1 0
VVECTOR 12 22
SWIDTH1 0 -1167
DWIDTH1 0 -28
BITMAP 
001E00
003800
006000
000000
F00078
7800F0
3C01E0
1E03C0
0F0780
078F00
03DE00
01FC00
00F800
007000
007000
007000
007000
007000
007000
007000
007000
007000
ENDCHAR
STARTCHAR Thorn
ENCODING 222
SWIDTH 656 0
DWIDTH 21 0
BBX 17 18 3 0
VVECTOR 13 22
SWIDTH1 0 -1167
DWIDTH1 0 -28
BITMAP 
E00000
E00000
E00000
E00000
FFFC00
FFFF00
E00700
E00380
E00380
E00380
E00380
E00700
FFFF00
FFFC00
E00000
E00000
E00000
E00000
ENDCHAR
STARTCHAR germandbls
ENCODING 223
SWIDTH 594 0
DWIDTH 19 0
BBX 16 18 2 0
VVECTOR 11 22
SWIDTH1 0 -1167
DWIDTH1 0 -28
BITMAP 
0FF0
3FFC
781C
700E
E00E
E00E
E01C
E0F8
E0FC
E01E
E00E
E007
E007
E007
E00E
E01E
E7FC
E7F0
ENDCHAR
STARTCHAR agrave
ENCODING 224
SWIDTH 562 0
DWIDTH 18 0
BBX 17 17 1 0
VVECTOR 10 22
SWIDTH1 0 -1167
DWIDTH1 0 -28
BITMAP 
1E0000
070000
018000
000000
0FF000
3FFC00
781C00
700E00
003E00
0FFE00
3FCE00
700E00
E00E00
E01E00
F07E00
7FEF80
1F8780
ENDCHAR
STARTCHAR aacute
ENCODING 225
SWIDTH 562 0
DWIDTH 18 0
BBX 17 17 1 0
VVECTOR 10 22
SWIDTH1 0 -1167
DWIDTH1 0 -28
BITMAP 
007800
00E000
018000
000000
0FF000
3FFC00
781C00
700E00
003E00
0FFE00
3FCE00
700E00
E00E00
E01E00
F07E00
7FEF80
1F8780
ENDCHAR
STARTCHAR acircumflex
ENCODING 226
SWIDTH 562 0
DWIDTH 18 0
BBX 17 17 1 0
VVECTOR 10 22
SWIDTH1 0 -1167
DWIDTH1 0 -28
BITMAP 
07E000
0E7000
181800
000000
0FF000
3FFC00
781C00
700E00
003E00
0FFE00
3FCE00
700E00
E00E00
E01E00
F07E00
7FEF80
1F8780
ENDCHAR
STARTCHAR atilde
ENCODING 227
SWIDTH 562 0
DWIDTH 18 0
BBX 17 17 1 0
VVECTOR 10 22
SWIDTH1 0 -1167
DWIDTH1 0 -28
BITMAP 
1F0400
318C00
20F800
000000
0FF000
3FFC00
781C00
700E00
003E00
0FFE00
3FCE00
700E00
E00E00
E01E00
F07E00
7FEF80
1F8780
ENDCHAR
STARTCHAR adieresis
ENCODING 228
SWIDTH 562 0
DWIDTH 18 0
BBX 17 17 1 0
VVECTOR 10 22
SWIDTH1 0 -1167
DWIDTH1 0 -28
BITMAP 
1C3800
1C3800
000000
000000
0FF000
3FFC00
781C00
700E00
003E00
0FFE00
3FCE00
700E00
E00E00
E01E00
F07E00
7FEF80
1F8780
ENDCHAR
STARTCHAR aring
ENCODING 229
SWIDTH 562 0
DWIDTH 18 0
BBX 17 18 1 0
VVECTOR 10 22
SWIDTH1 0 -1167
DWIDTH1 0 -28
BITMAP 
03C000
066000
066000
03C000
000000
0FF000
3FFC00
781C00
700E00
003E00
0FFE00
3FCE00
700E00
E00E00
E01E00
F07E00
7FEF80
1F8780
ENDCHAR
STARTCHAR ae
ENCODING 230
SWIDTH 906 0
DWIDTH 29 0
BBX 27 13 1 0
VVECTOR 15 22
SWIDTH1 0 -1167
DWIDTH1 0 -28
BITMAP 
0FE07E00
3FF9FF80
781F83C0
700F01C0
003E00E0
0FFFFFE0
3FCFFFE0
700E0000
E00E0000
E01F00E0
F03F81E0
7FF3FFC0
1FC0FF00
ENDCHAR
STARTCHAR ccedilla
ENCODING 231
SWIDTH 500 0
DWIDTH 16 0
BBX 15 18 1 -5
VVECTOR 9 22
SWIDTH1 0 -1167
DWIDTH1 0 -28
BITMAP 
0FF0
3FFC
781E
700E
E000
E000
E000
E000
E000
700E
781E
3FFC
0FF0
0180
01E0
0030
0630
03E0
ENDCHAR
STARTCHAR egrave
ENCODING 232
SWIDTH 531 0
DWIDTH 17 0
BBX 15 17 1 0
VVECTOR 9 22
SWIDTH1 0 -1167
DWIDTH1 0 -28
BITMAP 
1E00
0700
0180
0000
0FE0
3FF8
783C
701C
E00E
FFFE
FFFE
E000
E000
700E
781E
3FFC
0FF0
ENDCHAR
STARTCHAR eacute
ENCODING 233
SWIDTH 531 0
DWIDTH 17 0
BBX 15 17 1 0
VVECTOR 9 22
SWIDTH1 0 -1167
DWIDTH1 0 -28
BITMAP 
00F0
01C0
0300
0000
0FE0
3FF8
783C
701C
E00E
FFFE
FFFE
E000
E000
700E
781E
3FFC
0FF0
ENDCHAR
STARTCHAR ecircumflex
ENCODING 234
SWIDTH 531 0
DWIDTH 17 0
BBX 15 17 1 0
VVECTOR 9 22
SWIDTH1 0 -1167
DWIDTH1 0 -28
BITMAP 
07C0
0EE0
1830
0000
0FE0
3FF8
783C
701C
E00E
FFFE
FFFE
E000
E000
700E
781E
3FFC
0FF0
ENDCHAR
STARTCHAR edieresis
ENCODING 235
SWIDTH 531 0
DWIDTH 17 0
BBX 15 17 1 0
VVECTOR 9 22
SWIDTH1 0 -1167
DWIDTH1 0 -28
BITMAP 
1C70
1C70
0000
0000
0FE0
3FF8
783C
701C
E00E
FFFE
FFFE
E000
E000
700E
781E
3FFC
0FF0
ENDCHAR
STARTCHAR igrave
ENCODING 236
SWIDTH 219 0
DWIDTH 7 0
BBX 6 17 0 0
VVECTOR 3 22
SWIDTH1 0 -1167
DWIDTH1 0 -28
BITMAP 
F0
38
0C
00
38
38
38
38
38
38
38
38
38
38
38
38
38
ENDCHAR
STARTCHAR iacute
ENCODING 237
SWIDTH 219 0
DWIDTH 7 0
BBX 6 17 1 0
VVECTOR 5 22
SWIDTH1 0 -1167
DWIDTH1 0 -28
BITMAP 
3C
70
C0
00
70
70
70
70
70
70
70
70
70
70
70
70
70
ENDCHAR
STARTCHAR icircumflex
ENCODING 238
SWIDTH 219 0
DWIDTH 7 0
BBX 7 17 0 0
VVECTOR 4 22
SWIDTH1 0 -1167
DWIDTH1 0 -28
BITMAP 
7C
EE
C6
00
38
38
38
38
38
38
38
38
38
38
38
38
38
ENDCHAR
STARTCHAR idieresis
ENCODING 239
SWIDTH 219 0
DWIDTH 7 0
BBX 7 17 0 0
VVECTOR 4 22
SWIDTH1 0 -1167
DWIDTH1 0 -28
BITMAP 
EE
EE
00
00
38
38
38
38
38
38
38
38
38
38
38
38
38
ENDCHAR
STARTCHAR eth
ENCODING 240
SWIDTH 562 0
DWIDTH 18 0
BBX 16 18 1 0
VVECTOR 9 22
SWIDTH1 0 -1167
DWIDTH1 0 -28
BITMAP 
3C70
1FC0
0780
1DE0
00F0
0FF8
3FFC
781E
700E
E007
E007
E007
E007
E007
700E
781E
3FFC
0FF0
ENDCHAR
STARTCHAR ntilde
ENCODING 241
SWIDTH 562 0
DWIDTH 18 0
BBX 14 17 2 0
VVECTOR 9 22
SWIDTH1 0 -1167
DWIDTH1 0 -28
BITMAP 
1E10
3330
21E0
0000
E7E0
EFF8
FC38
F01C
E01C
E01C
E01C
E01C
E01C
E01C
E01C
E01C
E01C
ENDCHAR
STARTCHAR ograve
ENCODING 242
SWIDTH 562 0
DWIDTH 18 0
BBX 16 17 1 0
VVECTOR 9 22
SWIDTH1 0 -1167
DWIDTH1 0 -28
BITMAP 
0F00
0380
00C0
0000
0FF0
3FFC
781E
700E
E007
E007
E007
E007
E007
700E
781E
3FFC
0FF0
ENDCHAR
STARTCHAR oacute
ENCODING 243
SWIDTH 562 0
DWIDTH 18 0
BBX 16 17 1 0
VVECTOR 9 22
SWIDTH1 0 -1167
DWIDTH1 0 -28
BITMAP 
00F0
01C0
0300
0000
0FF0
3FFC
781E
700E
E007
E007
E007
E007
E007
700E
781E
3FFC
0FF0
ENDCHAR
STARTCHAR ocircumflex
ENCODING 244
SWIDTH 562 0
DWIDTH 18 0
BBX 16 17 1 0
VVECTOR 9 22
SWIDTH1 0 -1167
DWIDTH1 0 -28
BITMAP 
07E0
0E70
1818
0000
0FF0
3FFC
781E
700E
E007
E007
E007
E007
E007
700E
781E
3FFC
0FF0
ENDCHAR
STARTCHAR otilde
ENCODING 245
SWIDTH 562 0
DWIDTH 18 0
BBX 16 17 1 0
VVECTOR 9 22
SWIDTH1 0 -1167
DWIDTH1 0 -28
BITMAP 
0F08
1998
10F0
0000
0FF0
3FFC
781E
700E
E007
E007
E007
E007
E007
700E
781E
3FFC
0FF0
ENDCHAR
STARTCHAR odieresis
ENCODING 246
SWIDTH 562 0
DWIDTH 18 0
BBX 16 17 1 0
VVECTOR 9 22
SWIDTH1 0 -1167
DWIDTH1 0 -28
BITMAP 
1C38
1C38
0000
0000
0FF0
3FFC
781E
700E
E007
E007
E007
E007
E007
700E
781E
3FFC
0FF0
ENDCHAR
STARTCHAR divide
ENCODING 247
SWIDTH 594 0
DWIDTH 19 0
BBX 17 12 1 1
VVECTOR 10 22
SWIDTH1 0 -1167
DWIDTH1 0 -28
BITMAP 
01C000
01C000
01C000
000000
000000
FFFF80
FFFF80
000000
000000
01C000
01C000
01C000
ENDCHAR
STARTCHAR oslash
ENCODING 248
SWIDTH 562 0
DWIDTH 18 0
BBX 16 13 1 0
VVECTOR 9 22
SWIDTH1 0 -1167
DWIDTH1 0 -28
BITMAP 
0FF3
3FFE
781E
7036
E067
E0C7
E187
E307
E607
6C0E
781E
7FFC
CFF0
ENDCHAR
STARTCHAR ugrave
ENCODING 249
SWIDTH 562 0
DWIDTH 18 0
BBX 14 17 2 0
VVECTOR 9 22
SWIDTH1 0 -1167
DWIDTH1 0 -28
BITMAP 
1E00
0700
0180
0000
E01C
E01C
E01C
E01C
E01C
E01C
E01C
E01C
E01C
E03C
70FC
7FDC
1F9C
ENDCHAR
STARTCHAR uacute
ENCODING 250
SWIDTH 562 0
DWIDTH 18 0
BBX 14 17 2 0
VVECTOR 9 22
SWIDTH1 0 -1167
DWIDTH1 0 -28
BITMAP 
01E0
0380
0600
0000
E01C
E01C
E01C
E01C
E01C
E01C
E01C
E01C
E01C
E03C
70FC
7FDC
1F9C
ENDCHAR
STARTCHAR ucircumflex
ENCODING 251
SWIDTH 562 0
DWIDTH 18 0
BBX 14 17 2 0
VVECTOR 9 22
SWIDTH1 0 -1167
DWIDTH1 0 -28
BITMAP 
0FC0
1CE0
3030
0000
E01C
E01C
E01C
E01C
E01C
E01C
E01C
E01C
E01C
E03C
70FC
7FDC
1F9C
ENDCHAR
STARTCHAR udieresis
ENCODING 252
SWIDTH 562 0
DWIDTH 18 0
BBX 14 17 2 0
VVECTOR 9 22
SWIDTH1 0 -1167
DWIDTH1 0 -28
BITMAP 
3870
3870
0000
0000
E01C
E01C
E01C
E01C
E01C
E01C
E01C
E01C
E01C
E03C
70FC
7FDC
1F9C
ENDCHAR
STARTCHAR yacute
ENCODING 253
SWIDTH 469 0
DWIDTH 15 0
BBX 15 22 0 -5
VVECTOR 8 22
SWIDTH1 0 -1167
DWIDTH1 0 -28
BITMAP 
00F0
01C0
0300
0000
E00E
E00E
701C
701C
3838
3838
1C70
1C70
0EE0
0EE0
07C0
07C0
0380
0380
0300
0700
3E00
3C00
ENDCHAR
STARTCHAR thorn
ENCODING 254
SWIDTH 562 0
DWIDTH 18 0
BBX 15 23 2 -5
VVECTOR 10 22
SWIDTH1 0 -1167
DWIDTH1 0 -28
BITMAP 
E000
E000
E000
E000
E000
EFE0
FFF8
F83C
F01C
E00E
E00E
E00E
E00E
E00E
F01C
F83C
FFF8
EFE0
E000
E000
E000
E000
E000
ENDCHAR
STARTCHAR ydieresis
ENCODING 255
SWIDTH 469 0
DWIDTH 15 0
BBX 15 22 0 -5
VVECTOR 8 22
SWIDTH1 0 -1167
DWIDTH1 0 -28
BITMAP 
1C70
1C70
0000
0000
E00E
E00E
701C
701C
3838
3838
1C70
1C70
0EE0
0EE0
07C0
07C0
0380
0380
0300
0700
3E00
3C00
ENDCHAR
ENDFONT
